# Blender v2.64 (sub 0) OBJ File: ''
# www.blender.org
o Cube
v 4.000000 0.000000 -4.000000
v 4.000000 0.000000 4.000000
v -4.000000 0.000000 3.999999
v -3.999999 0.000000 -4.000001
v 4.000002 8.000000 -3.999998
v 3.999997 8.000000 4.000002
v -4.000001 8.000000 3.999999
v -4.000000 8.000000 -4.000000
v 4.000000 0.000000 -1.333333
v 4.000000 0.000000 1.333333
v 1.333334 0.000000 -4.000000
v -1.333332 0.000000 -4.000001
v 4.000000 2.666667 -3.999999
v 4.000001 5.333333 -3.999999
v 1.333333 0.000000 4.000000
v -1.333334 0.000000 4.000000
v 3.999999 2.666667 4.000001
v 3.999998 5.333333 4.000002
v -4.000000 0.000000 1.333332
v -3.999999 0.000000 -1.333335
v -4.000001 2.666667 3.999999
v -4.000001 5.333333 3.999999
v -3.999999 2.666667 -4.000001
v -4.000000 5.333333 -4.000000
v 4.000000 8.000000 -1.333331
v 3.999999 8.000000 1.333336
v 1.333334 8.000000 -3.999999
v -1.333333 8.000000 -3.999999
v 1.333331 8.000000 4.000001
v -1.333335 8.000000 4.000000
v -4.000001 8.000000 1.333332
v -4.000000 8.000000 -1.333334
v 1.333333 0.000000 -1.333334
v -1.333333 0.000000 -1.333334
v 1.333333 0.000000 1.333333
v -1.333333 0.000000 1.333333
v 1.333333 8.000000 -1.333332
v 1.333332 8.000000 1.333334
v -1.333333 8.000000 -1.333333
v -1.333334 8.000000 1.333333
v 4.000000 2.666667 -1.333332
v 4.000000 2.666667 1.333334
v 4.000000 5.333333 -1.333332
v 3.999999 5.333333 1.333335
v 1.333332 2.666667 4.000000
v -1.333334 2.666667 4.000000
v 1.333332 5.333333 4.000001
v -1.333335 5.333333 4.000000
v -4.000000 2.666667 1.333332
v -4.000000 2.666667 -1.333334
v -4.000000 5.333333 1.333332
v -4.000000 5.333333 -1.333334
v 1.333334 5.333333 -3.999999
v -1.333333 5.333333 -4.000000
v 1.333334 2.666667 -4.000000
v -1.333333 2.666667 -4.000000
vn 0.000000 -1.000000 0.000000
vn 0.000000 1.000000 0.000000
vn 1.000000 0.000000 0.000000
vn -0.000000 0.000000 1.000000
vn -1.000000 -0.000000 -0.000000
vn 0.000000 0.000000 -1.000000
s off
f 36//1 16//1 3//1
f 36//1 3//1 19//1
f 40//2 31//2 7//2
f 40//2 7//2 30//2
f 44//3 26//3 6//3
f 44//3 6//3 18//3
f 48//4 30//4 7//4
f 48//4 7//4 22//4
f 52//5 32//5 8//5
f 52//5 8//5 24//5
f 56//6 12//6 4//6
f 56//6 4//6 23//6
f 12//1 34//1 20//1
f 12//1 20//1 4//1
f 34//1 36//1 19//1
f 34//1 19//1 20//1
f 1//1 9//1 33//1
f 1//1 33//1 11//1
f 11//1 33//1 34//1
f 11//1 34//1 12//1
f 9//1 10//1 35//1
f 9//1 35//1 33//1
f 33//1 35//1 36//1
f 33//1 36//1 34//1
f 10//1 2//1 15//1
f 10//1 15//1 35//1
f 35//1 15//1 16//1
f 35//1 16//1 36//1
f 26//2 38//2 29//2
f 26//2 29//2 6//2
f 38//2 40//2 30//2
f 38//2 30//2 29//2
f 5//2 27//2 37//2
f 5//2 37//2 25//2
f 25//2 37//2 38//2
f 25//2 38//2 26//2
f 27//2 28//2 39//2
f 27//2 39//2 37//2
f 37//2 39//2 40//2
f 37//2 40//2 38//2
f 28//2 8//2 32//2
f 28//2 32//2 39//2
f 39//2 32//2 31//2
f 39//2 31//2 40//2
f 10//3 42//3 17//3
f 10//3 17//3 2//3
f 42//3 44//3 18//3
f 42//3 18//3 17//3
f 1//3 13//3 41//3
f 1//3 41//3 9//3
f 9//3 41//3 42//3
f 9//3 42//3 10//3
f 13//3 14//3 43//3
f 13//3 43//3 41//3
f 41//3 43//3 44//3
f 41//3 44//3 42//3
f 14//3 5//3 25//3
f 14//3 25//3 43//3
f 43//3 25//3 26//3
f 43//3 26//3 44//3
f 16//4 46//4 21//4
f 16//4 21//4 3//4
f 46//4 48//4 22//4
f 46//4 22//4 21//4
f 2//4 17//4 45//4
f 2//4 45//4 15//4
f 15//4 45//4 46//4
f 15//4 46//4 16//4
f 17//4 18//4 47//4
f 17//4 47//4 45//4
f 45//4 47//4 48//4
f 45//4 48//4 46//4
f 18//4 6//4 29//4
f 18//4 29//4 47//4
f 47//4 29//4 30//4
f 47//4 30//4 48//4
f 20//5 50//5 23//5
f 20//5 23//5 4//5
f 50//5 52//5 24//5
f 50//5 24//5 23//5
f 3//5 21//5 49//5
f 3//5 49//5 19//5
f 19//5 49//5 50//5
f 19//5 50//5 20//5
f 21//5 22//5 51//5
f 21//5 51//5 49//5
f 49//5 51//5 52//5
f 49//5 52//5 50//5
f 22//5 7//5 31//5
f 22//5 31//5 51//5
f 51//5 31//5 32//5
f 51//5 32//5 52//5
f 28//6 54//6 24//6
f 28//6 24//6 8//6
f 54//6 56//6 23//6
f 54//6 23//6 24//6
f 5//6 14//6 53//6
f 5//6 53//6 27//6
f 27//6 53//6 54//6
f 27//6 54//6 28//6
f 14//6 13//6 55//6
f 14//6 55//6 53//6
f 53//6 55//6 56//6
f 53//6 56//6 54//6
f 13//6 1//6 11//6
f 13//6 11//6 55//6
f 55//6 11//6 12//6
f 55//6 12//6 56//6
